<svg xmlns="http://www.w3.org/2000/svg" viewBox="0 0 720 520" width="100%" style="max-width:720px;font-family:system-ui,sans-serif">
  <defs>
    <marker id="arrow" markerWidth="8" markerHeight="6" refX="8" refY="3" orient="auto"><polygon points="0 0,8 3,0 6" fill="#003399"/></marker>
  </defs>
  <rect width="720" height="520" fill="#f8f9ff" rx="14"/>
  <text x="360" y="24" text-anchor="middle" font-size="14" font-weight="700" fill="#003399">欧洲多国组合财富架构</text>
  <!-- Top: China -->
  <rect x="260" y="42" width="200" height="44" rx="10" fill="#fef3c7" stroke="#d97706" stroke-width="1.5"/>
  <text x="360" y="60" text-anchor="middle" font-size="11" font-weight="700" fill="#92400e">中国事业主体/家庭资产</text>
  <text x="360" y="76" text-anchor="middle" font-size="9" fill="#78716c">境内运营公司+境内资产</text>
  <!-- Arrows down -->
  <line x1="360" y1="86" x2="360" y2="115" stroke="#003399" stroke-width="1.5" marker-end="url(#arrow)"/>
  <line x1="230" y1="64" x2="90" y2="115" stroke="#003399" stroke-width="1" stroke-dasharray="4,3"/>
  <line x1="490" y1="64" x2="630" y2="115" stroke="#003399" stroke-width="1" stroke-dasharray="4,3"/>
  <!-- Wealth management hub -->
  <rect x="240" y="115" width="240" height="44" rx="10" fill="#dbeafe" stroke="#1d4ed8" stroke-width="2"/>
  <text x="360" y="133" text-anchor="middle" font-size="11" font-weight="700" fill="#1e40af">香港/新加坡财富管理中心</text>
  <text x="360" y="149" text-anchor="middle" font-size="9" fill="#3b82f6">境外控股平台+私银+家办</text>
  <!-- Arrows to European identity layer -->
  <line x1="360" y1="159" x2="360" y2="190" stroke="#003399" stroke-width="1.5" marker-end="url(#arrow)"/>
  <!-- European identity box -->
  <rect x="80" y="190" width="560" height="90" rx="12" fill="#e8eeff" stroke="#003399" stroke-width="2"/>
  <text x="360" y="212" text-anchor="middle" font-size="12" font-weight="700" fill="#003399">欧洲身份层（灵活组合）</text>
  <!-- Country boxes inside -->
  <rect x="100" y="224" width="120" height="44" rx="8" fill="#fff" stroke="#003399" stroke-width="1"/>
  <text x="160" y="242" text-anchor="middle" font-size="9" font-weight="700" fill="#003399">🇵🇹 葡萄牙居留→永居</text>
  <text x="160" y="258" text-anchor="middle" font-size="8" fill="#6b7280">ARI基金€50万 / 7天/年</text>
  <rect x="235" y="224" width="110" height="44" rx="8" fill="#fff" stroke="#003399" stroke-width="1"/>
  <text x="290" y="242" text-anchor="middle" font-size="9" font-weight="700" fill="#003399">🇬🇷 希腊永居</text>
  <text x="290" y="258" text-anchor="middle" font-size="8" fill="#6b7280">GV €25-80万 / 无居住</text>
  <rect x="360" y="224" width="110" height="44" rx="8" fill="#fff" stroke="#003399" stroke-width="1"/>
  <text x="415" y="242" text-anchor="middle" font-size="9" font-weight="700" fill="#003399">🇲🇹 马耳他永居</text>
  <text x="415" y="258" text-anchor="middle" font-size="8" fill="#6b7280">MPRP 租房/购房</text>
  <rect x="485" y="224" width="135" height="44" rx="8" fill="#fff" stroke="#003399" stroke-width="1"/>
  <text x="552" y="242" text-anchor="middle" font-size="9" font-weight="700" fill="#003399">🇨🇾 塞浦路斯PR</text>
  <text x="552" y="258" text-anchor="middle" font-size="8" fill="#6b7280">€30万购房 / 无居住</text>
  <!-- Arrows down -->
  <line x1="170" y1="280" x2="170" y2="310" stroke="#003399" stroke-width="1" stroke-dasharray="4,3"/>
  <line x1="360" y1="280" x2="360" y2="310" stroke="#003399" stroke-width="1.5" marker-end="url(#arrow)"/>
  <line x1="520" y1="280" x2="520" y2="310" stroke="#003399" stroke-width="1" stroke-dasharray="4,3"/>
  <!-- European assets -->
  <rect x="160" y="310" width="400" height="50" rx="10" fill="#f0fdf4" stroke="#16a34a" stroke-width="1.5"/>
  <text x="360" y="330" text-anchor="middle" font-size="11" font-weight="600" fill="#166534">欧洲资产配置（可选）</text>
  <text x="360" y="348" text-anchor="middle" font-size="9" fill="#4ade80">葡萄牙基金+希腊房产+马耳他债券+塞浦路斯地产</text>
  <!-- Arrow to bottom -->
  <line x1="360" y1="360" x2="360" y2="390" stroke="#003399" stroke-width="1.5" marker-end="url(#arrow)"/>
  <!-- Global -->
  <rect x="180" y="390" width="360" height="50" rx="12" fill="#1e293b" stroke="#0f172a" stroke-width="2"/>
  <text x="360" y="410" text-anchor="middle" font-size="12" font-weight="700" fill="#fff">全球资产组合（多中心管理）</text>
  <text x="360" y="428" text-anchor="middle" font-size="9" fill="#94a3b8">股票+债券+基金+保险+信托 — 香港/新加坡/瑞士/迪拜</text>
  <!-- Key notes -->
  <rect x="80" y="458" width="560" height="48" rx="8" fill="#fef3c7" stroke="#d97706" stroke-width="1"/>
  <text x="360" y="476" text-anchor="middle" font-size="9" font-weight="600" fill="#92400e">⚠️ 多国并行策略：每个身份单独维护+税务居民判定谨慎管理+CRS信息交换覆盖全欧洲</text>
  <text x="360" y="494" text-anchor="middle" font-size="9" fill="#78716c">申根区居留卡不受90/180天限制 | 各国183天规则独立计算 | 避免双重税务居民</text>
</svg>