<svg xmlns="http://www.w3.org/2000/svg" viewBox="0 0 720 340" width="100%" style="max-width:720px;font-family:system-ui,sans-serif"><defs><marker id="a" markerWidth="8" markerHeight="6" refX="8" refY="3" orient="auto"><polygon points="0 0,8 3,0 6" fill="#1a1a6e"/></marker></defs><rect width="720" height="340" fill="#f8f9ff" rx="14"/><text x="360" y="22" text-anchor="middle" font-size="13" font-weight="700" fill="#1a1a6e">葡萄牙D9/ARI基金投资居留</text><rect x="50" y="45" width="150" height="55" rx="10" fill="#fff" stroke="#1a1a6e" stroke-width="1.5"/><text x="125" y="62" text-anchor="middle" font-size="9" font-weight="600">认购CMVM合规基金</text><text x="125" y="78" text-anchor="middle" font-size="9" fill="#6b7280">€50万</text><line x1="202" y1="72" x2="238" y2="72" stroke="#1a1a6e" stroke-width="1.5" marker-end="url(#a)"/><rect x="240" y="45" width="150" height="55" rx="10" fill="#fff" stroke="#1a1a6e" stroke-width="1.5"/><text x="315" y="62" text-anchor="middle" font-size="9" font-weight="600">AIMA提交ARI申请</text><text x="315" y="78" text-anchor="middle" font-size="9" fill="#6b7280">6-12月</text><line x1="392" y1="72" x2="428" y2="72" stroke="#1a1a6e" stroke-width="1.5" marker-end="url(#a)"/><rect x="430" y="45" width="150" height="55" rx="10" fill="#fff" stroke="#1a1a6e" stroke-width="1.5"/><text x="505" y="62" text-anchor="middle" font-size="9" font-weight="600">获居留卡(首次2年)</text><text x="505" y="78" text-anchor="middle" font-size="9" fill="#6b7280">7天/年居住</text><line x1="582" y1="72" x2="618" y2="72" stroke="#1a1a6e" stroke-width="1.5" marker-end="url(#a)"/><rect x="620" y="45" width="80" height="55" rx="10" fill="#e8eaff" stroke="#1a1a6e" stroke-width="2"/><text x="660" y="72" text-anchor="middle" font-size="9" font-weight="600">申根</text><line x1="660" y1="102" x2="660" y2="135" stroke="#1a1a6e" stroke-width="1.5"/><line x1="660" y1="135" x2="46" y2="135" stroke="#1a1a6e" stroke-width="1.5" marker-end="url(#a)"/><rect x="50" y="110" width="160" height="50" rx="10" fill="#fff" stroke="#1a1a6e" stroke-width="1.5"/><text x="130" y="130" text-anchor="middle" font-size="10" font-weight="600">第2年续签(3年)</text><text x="130" y="148" text-anchor="middle" font-size="9" fill="#6b7280">持有基金不变</text><line x1="212" y1="135" x2="248" y2="135" stroke="#1a1a6e" stroke-width="1.5" marker-end="url(#a)"/><rect x="250" y="110" width="160" height="50" rx="10" fill="#fff" stroke="#1a1a6e" stroke-width="1.5"/><text x="330" y="130" text-anchor="middle" font-size="10" font-weight="600">第5年永居申请</text><text x="330" y="148" text-anchor="middle" font-size="9" fill="#6b7280">葡语A2</text><line x1="412" y1="135" x2="448" y2="135" stroke="#1a1a6e" stroke-width="1.5" marker-end="url(#a)"/><rect x="450" y="110" width="200" height="50" rx="10" fill="#e8eaff" stroke="#1a1a6e" stroke-width="2"/><text x="550" y="130" text-anchor="middle" font-size="10" font-weight="700">可选10年入籍(新法)</text><text x="550" y="148" text-anchor="middle" font-size="9" fill="#6b7280">葡语A2+入籍考试</text><line x1="550" y1="162" x2="550" y2="195" stroke="#1a1a6e" stroke-width="1.5"/><line x1="550" y1="195" x2="46" y2="195" stroke="#1a1a6e" stroke-width="1.5" marker-end="url(#a)"/><rect x="50" y="170" width="300" height="50" rx="10" fill="#fef3c7" stroke="#d97706" stroke-width="1.5"/><text x="200" y="190" text-anchor="middle" font-size="10" font-weight="600">⚠️入籍新法5年→10年</text><text x="200" y="208" text-anchor="middle" font-size="9" fill="#78716c">2026.5颁布待生效/永居仍5年</text></svg>
