<svg xmlns="http://www.w3.org/2000/svg" viewBox="0 0 720 240" width="100%" style="max-width:720px;font-family:system-ui,sans-serif">
  <defs>
    <marker id="arrow" markerWidth="8" markerHeight="6" refX="8" refY="3" orient="auto">
      <polygon points="0 0, 8 3, 0 6" fill="#1a365d"/>
    </marker>
  </defs>
  <rect width="720" height="240" fill="#f8fafc" rx="14"/>
  <text x="360.0" y="22" text-anchor="middle" font-size="13" font-weight="700" fill="#1a365d">欧洲黄金签证(主流)</text>
  <rect x="50" y="40" width="180" height="50" rx="10" fill="#fff" stroke="#1a365d" stroke-width="1.5"/>
  <text x="140.0" y="60" text-anchor="middle" font-size="11" font-weight="600" fill="#1f2937">选择国家+路径</text>
  <text x="140.0" y="78" text-anchor="middle" font-size="10" fill="#6b7280">1-2周</text>
  <line x1="232" y1="65.0" x2="268" y2="65.0" stroke="#1a365d" stroke-width="1.5" marker-end="url(#arrow)"/>
  <rect x="270" y="40" width="180" height="50" rx="10" fill="#fff" stroke="#1a365d" stroke-width="1.5"/>
  <text x="360.0" y="60" text-anchor="middle" font-size="11" font-weight="600" fill="#1f2937">完成投资/购房/基金</text>
  <text x="360.0" y="78" text-anchor="middle" font-size="10" fill="#6b7280">2-4月</text>
  <line x1="452" y1="65.0" x2="488" y2="65.0" stroke="#1a365d" stroke-width="1.5" marker-end="url(#arrow)"/>
  <rect x="490" y="40" width="180" height="50" rx="10" fill="#fff" stroke="#1a365d" stroke-width="1.5"/>
  <text x="580.0" y="60" text-anchor="middle" font-size="11" font-weight="600" fill="#1f2937">提交居留申请</text>
  <text x="580.0" y="78" text-anchor="middle" font-size="10" fill="#6b7280">1-2周</text>
  <line x1="580.0" y1="92" x2="580.0" y2="170.0" stroke="#1a365d" stroke-width="1.5"/>
  <line x1="580.0" y1="170.0" x2="48" y2="145.0" stroke="#1a365d" stroke-width="1.5" marker-end="url(#arrow)"/>
  <rect x="50" y="120" width="180" height="50" rx="10" fill="#fff" stroke="#1a365d" stroke-width="1.5"/>
  <text x="140.0" y="140" text-anchor="middle" font-size="11" font-weight="600" fill="#1f2937">移民局审理</text>
  <text x="140.0" y="158" text-anchor="middle" font-size="10" fill="#6b7280">3-12月</text>
  <line x1="232" y1="145.0" x2="268" y2="145.0" stroke="#1a365d" stroke-width="1.5" marker-end="url(#arrow)"/>
  <rect x="270" y="120" width="180" height="50" rx="10" fill="#fff" stroke="#1a365d" stroke-width="1.5"/>
  <text x="360.0" y="140" text-anchor="middle" font-size="11" font-weight="600" fill="#1f2937">获批+领取居留卡</text>
  <text x="360.0" y="158" text-anchor="middle" font-size="10" fill="#6b7280">1-2周</text>
  <line x1="452" y1="145.0" x2="488" y2="145.0" stroke="#1a365d" stroke-width="1.5" marker-end="url(#arrow)"/>
  <rect x="490" y="120" width="180" height="50" rx="10" fill="#fff" stroke="#1a365d" stroke-width="1.5"/>
  <text x="580.0" y="140" text-anchor="middle" font-size="11" font-weight="600" fill="#1f2937">满足居住→永居/入籍</text>
  <text x="580.0" y="158" text-anchor="middle" font-size="10" fill="#6b7280">5-10年</text>
</svg>